<?xml version="1.0" standalone="no"?>
<!DOCTYPE svg PUBLIC "-//W3C//DTD SVG 20010904//EN"
 "http://www.w3.org/TR/2001/REC-SVG-20010904/DTD/svg10.dtd">
<svg version="1.0" xmlns="http://www.w3.org/2000/svg"
 width="320.000000pt" height="320.000000pt" viewBox="0 0 320.000000 320.000000"
 preserveAspectRatio="xMidYMid meet">
<metadata>
Created by potrace 1.11, written by Peter Selinger 2001-2013
</metadata>
<g transform="translate(0.000000,320.000000) scale(0.100000,-0.100000)"
fill="#000000" stroke="none">
<path d="M0 1600 l0 -1600 1600 0 1600 0 0 1600 0 1600 -1600 0 -1600 0 0
-1600z m3113 394 c26 -9 47 -18 47 -21 0 -10 -53 -158 -59 -165 -4 -4 -26 -1
-50 8 -76 26 -136 0 -169 -73 -14 -32 -17 -79 -20 -290 l-4 -253 -104 0 -104
0 0 395 0 395 95 0 95 0 0 -52 0 -53 42 49 c65 76 133 94 231 60z m-2808 -256
c38 -136 72 -249 75 -252 3 -3 35 108 71 247 l66 252 102 0 103 0 63 -248 c35
-137 65 -251 68 -253 3 -4 27 73 135 448 l17 58 102 0 102 0 -19 -57 c-28 -87
-210 -653 -222 -690 l-10 -33 -101 0 -102 0 -64 243 c-35 133 -67 245 -70 249
-4 4 -31 -86 -60 -200 -30 -114 -61 -228 -68 -254 l-14 -48 -98 0 -98 0 -25
83 c-14 45 -55 174 -91 287 -93 292 -127 403 -127 412 0 5 44 7 97 6 l97 -3
71 -247z m1260 10 c38 -134 72 -249 75 -257 9 -17 1 -43 81 262 l62 237 101 0
101 0 65 -255 c35 -140 66 -252 69 -249 3 3 37 116 77 252 l71 247 102 3 c55
1 101 0 101 -3 0 -2 -29 -94 -64 -202 -36 -109 -92 -285 -126 -390 l-61 -193
-98 0 c-86 0 -99 2 -103 18 -3 9 -34 124 -68 255 -36 135 -66 233 -71 225 -4
-7 -35 -122 -70 -256 l-64 -243 -100 3 -99 3 -81 255 c-44 140 -98 311 -119
380 -21 69 -41 131 -44 138 -3 9 20 12 96 12 l99 0 68 -242z"/>
</g>
</svg>
